<svg width="113" height="24" viewBox="0 0 113 24" fill="none" xmlns="http://www.w3.org/2000/svg">
<path d="M8.24748 21.0733C8.63602 21.0733 9.12176 21.0247 9.70462 20.9276V23.1716C9.04402 23.2881 8.37376 23.3464 7.69376 23.3464C6.27547 23.3464 5.14862 22.9676 4.31319 22.2098C3.49719 21.4327 3.0989 20.2573 3.11833 18.6836L3.14748 10.4653H0.378906V8.27955H3.14748L3.17662 3.15041H5.71205L5.68291 8.27955H9.67548V10.4653H5.68291L5.62462 18.1881C5.62462 20.1116 6.49891 21.0733 8.24748 21.0733ZM13.0683 1.75155C13.3986 1.42127 13.7872 1.25612 14.234 1.25612C14.6809 1.25612 15.0695 1.42127 15.3997 1.75155C15.7301 2.06241 15.8952 2.45098 15.8952 2.91727C15.8952 3.36412 15.7301 3.7527 15.3997 4.08298C15.0695 4.39384 14.6809 4.54927 14.234 4.54927C13.7677 4.54927 13.3695 4.39384 13.0392 4.08298C12.7284 3.7527 12.5729 3.36412 12.5729 2.91727C12.5729 2.45098 12.738 2.06241 13.0683 1.75155ZM15.458 23.1424H12.9517V8.27955H15.458V23.1424ZM27.3408 15.5361L32.5574 23.1424H29.5557L25.534 17.2556L21.454 23.1424H18.5106L23.6106 15.4778L18.7437 8.27955H21.7163L25.534 13.8458L29.2643 8.27955H32.266L27.3408 15.5361ZM36.0151 19.9658C36.5009 19.9658 36.9089 20.1407 37.2391 20.4904C37.5888 20.8207 37.7637 21.2287 37.7637 21.7144C37.7637 22.1807 37.5888 22.5887 37.2391 22.9384C36.9089 23.2687 36.5009 23.4338 36.0151 23.4338C35.5488 23.4338 35.1506 23.2687 34.8203 22.9384C34.49 22.5887 34.3248 22.1807 34.3248 21.7144C34.3248 21.2287 34.49 20.8207 34.8203 20.4904C35.1506 20.1407 35.5488 19.9658 36.0151 19.9658ZM46.7406 8.01727C48.567 8.01727 49.9658 8.52241 50.9372 9.53269C51.9281 10.5236 52.4235 11.9419 52.4235 13.7876V23.1424H49.8881V21.3938C48.7418 22.7539 47.2652 23.4338 45.4584 23.4338C43.9818 23.4338 42.7967 23.0647 41.9029 22.3264C41.0286 21.5687 40.5915 20.5292 40.5915 19.2081C40.5915 16.4492 42.408 14.9727 46.0412 14.7784L49.8881 14.5453V13.8458C49.8881 11.4367 48.8486 10.2321 46.7698 10.2321C45.7206 10.2321 44.9143 10.5332 44.3509 11.1356C43.8069 11.7379 43.5349 12.4664 43.5349 13.3213L40.9995 13.2047C40.9995 11.8447 41.5241 10.6401 42.5732 9.59098C43.6224 8.54184 45.0115 8.01727 46.7406 8.01727ZM49.9172 16.5561L46.3618 16.7893C44.2052 16.9253 43.1269 17.7122 43.1269 19.1498C43.1269 20.5682 44.0304 21.2773 45.8372 21.2773C47.0612 21.2773 48.0424 20.947 48.7806 20.2864C49.5384 19.6064 49.9172 18.567 49.9172 17.1681V16.5561ZM63.3518 0.381836C63.6627 0.381836 64.0319 0.401265 64.4592 0.440122V2.62584C64.1484 2.58698 63.8667 2.56755 63.6141 2.56755C62.701 2.56755 61.9627 2.84927 61.3992 3.41269C60.8553 3.97612 60.5832 4.75327 60.5832 5.74412V8.27955H64.401V10.4653H60.5832V23.1424H58.077V10.4653H55.1918V8.27955H58.077V5.80241C58.077 4.11212 58.553 2.79098 59.505 1.83898C60.457 0.867554 61.7393 0.381836 63.3518 0.381836ZM74.1864 8.10469V10.5236C72.8847 10.5236 71.8356 10.9121 71.0389 11.6893C70.2618 12.4664 69.8732 13.4378 69.8732 14.6036V23.1424H67.3669V8.27955H69.8149V10.5236C70.1064 9.84358 70.6212 9.27041 71.3595 8.80412C72.0978 8.33784 73.0401 8.10469 74.1864 8.10469ZM77.3875 1.75155C77.7178 1.42127 78.1064 1.25612 78.5532 1.25612C79.0001 1.25612 79.3887 1.42127 79.719 1.75155C80.0492 2.06241 80.2144 2.45098 80.2144 2.91727C80.2144 3.36412 80.0492 3.7527 79.719 4.08298C79.3887 4.39384 79.0001 4.54927 78.5532 4.54927C78.087 4.54927 77.6886 4.39384 77.3584 4.08298C77.0475 3.7527 76.8921 3.36412 76.8921 2.91727C76.8921 2.45098 77.0573 2.06241 77.3875 1.75155ZM79.7772 23.1424H77.271V8.27955H79.7772V23.1424ZM91.194 8.01727C92.9615 8.01727 94.458 8.52241 95.682 9.53269C96.9249 10.5236 97.6535 11.8738 97.8678 13.5836L95.4198 13.7876C95.2835 12.6801 94.8266 11.8058 94.05 11.1647C93.2726 10.5041 92.3203 10.1738 91.194 10.1738C89.7755 10.1738 88.6295 10.6693 87.7552 11.6601C86.8809 12.6315 86.4438 13.9819 86.4438 15.711C86.4438 17.4401 86.8809 18.8001 87.7552 19.791C88.6483 20.7624 89.7952 21.2481 91.194 21.2481C92.3598 21.2481 93.3112 20.947 94.05 20.3447C94.8078 19.7424 95.274 18.9167 95.4489 17.8676L97.8969 18.1007C97.6243 19.7522 96.8863 21.0538 95.682 22.0058C94.4769 22.9579 92.9812 23.4338 91.194 23.4338C89.0563 23.4338 87.2983 22.7441 85.9192 21.3647C84.5589 19.9853 83.8788 18.1007 83.8788 15.711C83.8788 13.3213 84.5589 11.4464 85.9192 10.0864C87.2786 8.70701 89.0375 8.01727 91.194 8.01727ZM106.876 8.01727C108.703 8.01727 110.102 8.52241 111.073 9.53269C112.064 10.5236 112.559 11.9419 112.559 13.7876V23.1424H110.024V21.3938C108.878 22.7539 107.401 23.4338 105.594 23.4338C104.117 23.4338 102.933 23.0647 102.039 22.3264C101.164 21.5687 100.727 20.5292 100.727 19.2081C100.727 16.4492 102.543 14.9727 106.177 14.7784L110.024 14.5453V13.8458C110.024 11.4367 108.984 10.2321 106.905 10.2321C105.856 10.2321 105.05 10.5332 104.487 11.1356C103.942 11.7379 103.671 12.4664 103.671 13.3213L101.135 13.2047C101.135 11.8447 101.66 10.6401 102.709 9.59098C103.758 8.54184 105.147 8.01727 106.876 8.01727ZM110.053 16.5561L106.497 16.7893C104.341 16.9253 103.263 17.7122 103.263 19.1498C103.263 20.5682 104.166 21.2773 105.973 21.2773C107.197 21.2773 108.178 20.947 108.916 20.2864C109.674 19.6064 110.053 18.567 110.053 17.1681V16.5561Z" fill="white"/>
</svg>
